<?xml version="1.0" encoding="UTF-8"?><svg id="Layer_1" xmlns="http://www.w3.org/2000/svg" viewBox="0 0 414.32 91.25"><path d="M27.86,7.69c.8-2.62,1.23-4,1.31-4.14,.65-1.38,1.6-2.07,2.83-2.07,1.38,0,2.43,.58,3.16,1.74,.36,.58,.87,1.93,1.53,4.03l25.94,69.54c.44,1.24,.65,2.47,.65,3.71,0,1.89-.42,3.56-1.25,5.01-.84,1.45-2.09,2.58-3.76,3.38-1.38,.58-2.76,.87-4.14,.87-3.85,0-6.51-1.59-7.96-4.77l-5.13-10.3c-.22-.58-.45-1.19-.71-1.84-.26-.65-.64-1.16-1.15-1.52-.51-.36-1.24-.54-2.18-.54H17.48c-1.89,0-3.15,.14-3.76,.41-.62,.27-1.22,.68-1.8,1.22-.58,.54-.95,1.05-1.09,1.52l-4.6,13.62c-.22,.77-.65,1.39-1.3,1.88-.65,.49-1.33,.73-2.05,.73-.43,0-.76-.07-.97-.21-.94-.35-1.4-1.13-1.4-2.33,0-.28,.04-.6,.11-.95,.07-.28,.14-.56,.22-.84L27.86,7.69Zm-11.85,50.59c-.39,.96-.58,1.95-.58,2.98,0,.44,.18,1.12,.54,2.04,.36,.92,.76,1.56,1.2,1.93,.44,.37,.91,.55,1.42,.55h13.3c.87,0,1.65-.16,2.34-.49,.69-.33,1.2-.8,1.53-1.42,.33-.62,.49-1.29,.49-2.02,0-.87-.15-1.63-.44-2.29l-6.86-15.58c-.36-.87-.69-1.78-.98-2.73-.44-.94-1.12-1.49-2.07-1.64-1.23-.22-2.25,.29-3.05,1.53-.44,.65-.98,1.89-1.63,3.71l-5.21,13.41Z" style="fill:red; stroke:#000; stroke-miterlimit:10;"/><path d="M69.5,10.85c0-2.98,.98-5.45,2.94-7.41,1.96-1.96,4.43-2.94,7.41-2.94,2.62,0,4.92,.96,6.92,2.89,2,1.93,3,4.27,3,7.03V79.96c0,2.98-.95,5.52-2.83,7.63-1.89,2.11-4.25,3.16-7.08,3.16s-5.36-.93-7.36-2.78c-2-1.85-3-4.23-3-7.14V10.85Z" style="fill:red; stroke:#000; stroke-miterlimit:10;"/><path d="M96.64,10.97c0-2.4,.82-4.46,2.45-6.17,1.63-1.71,3.65-2.56,6.05-2.56,2.18,0,4.07,.58,5.67,1.75,1.6,1.17,2.76,2.8,3.49,4.92l13.52,35.83c.8,2.4,1.45,3.97,1.96,4.7,1.02,1.53,2.32,2.29,3.92,2.29s2.73-.8,3.6-2.4c.36-.73,.98-2.4,1.85-5.01l11.77-34.88c.73-2.18,1.94-3.92,3.65-5.23,1.71-1.31,3.65-1.96,5.83-1.96,.36,0,.98,.07,1.85,.22,2.54,.51,4.56,1.77,6.05,3.77,1.49,2,2.23,4.38,2.23,7.15V80.28c0,2.62-.8,4.88-2.4,6.77-1.6,1.89-3.63,2.84-6.1,2.84-2.76,0-5.12-.98-7.08-2.95-1.96-1.97-2.94-4.37-2.94-7.21v-28.85c0-1.82-.26-3.3-.76-4.42-.51-1.13-1.49-1.84-2.94-2.13-1.38-.22-2.54,.24-3.49,1.37-.95,1.13-1.67,2.57-2.18,4.32l-11.99,35.73c-.36,1.31-.69,2.22-.98,2.73-.51,.95-1.2,1.42-2.07,1.42-.95,0-1.67-.34-2.18-1.04-.51-.69-.98-1.65-1.42-2.89l-13.62-35.43c-.36-1.16-.93-2.11-1.69-2.83-.76-.73-1.65-.94-2.67-.65-.8,.22-1.36,.73-1.69,1.53-.33,.8-.49,1.74-.49,2.83v34.44c0,1.09-.31,2.04-.93,2.83-.62,.8-1.44,1.2-2.45,1.2-1.09,0-2-.44-2.72-1.31-.73-.87-1.09-1.89-1.09-3.06V10.97Z" style="fill:red; stroke:#000; stroke-miterlimit:10;"/><path d="M175.23,21.38c0-5.58,2.16-10.11,6.49-13.59,4.32-3.48,9.57-5.22,15.75-5.22s11.52,1.45,16.02,4.35c5.01,3.26,7.52,7.54,7.52,12.83v55.45c0,4.28-2,7.76-6,10.44-3.49,2.32-7.81,3.77-12.97,4.35-.73,.07-1.36,.13-1.91,.16-.54,.04-1.04,.05-1.47,.05-5.89,0-11.05-1.27-15.48-3.8-5.31-3.05-7.96-7.07-7.96-12.07V21.38Zm19.07,51.08c0,3.27,1.22,6.01,3.65,8.22,2.43,2.21,5.4,3.32,8.88,3.32,2.47-.22,4.5-1.52,6.1-3.92,1.6-2.39,2.4-5.08,2.4-8.05V23.04c0-3.7-1.02-6.95-3.05-9.74-2.04-2.79-4.72-4.19-8.07-4.19-3.05,0-5.47,1.42-7.25,4.25-1.78,2.83-2.67,6.06-2.67,9.69v49.41Z" style="fill:red; stroke:#000; stroke-miterlimit:10;"/><path d="M227.11,17.49c-.29-.87-.51-1.67-.65-2.39-.15-.73-.22-1.6-.22-2.61,0-1.89,.38-3.59,1.14-5.12,.76-1.52,1.91-2.61,3.43-3.26,1.53-.65,2.91-.98,4.14-.98,1.89,0,3.58,.44,5.07,1.31,1.49,.87,2.56,2.18,3.22,3.92l11.55,28.99c.51,1.31,1.34,2.27,2.51,2.89,1.16,.62,2.54,.93,4.14,.93,1.74,0,3.47-.36,5.18-1.09,1.71-.73,3.14-1.89,4.31-3.49,1.16-1.6,1.74-3.38,1.74-5.34,0-1.09-.22-2.18-.65-3.27l-5.01-11.12c-.51-1.09-.76-2.32-.76-3.71,0-2.62,.91-5.03,2.73-7.25,1.82-2.22,4-3.32,6.54-3.32,2.32,0,4.29,1.02,5.89,3.05,1.6,2.04,2.4,4.32,2.4,6.87,0,1.02-.15,1.93-.44,2.72l-23.11,68.02c-.36,1.53-.73,3.02-1.09,4.47-.58,1.67-1.53,2.51-2.83,2.51-1.45,0-2.49-.85-3.11-2.56-.62-1.71-1.04-2.89-1.25-3.54l-24.85-66.62Z" style="fill:red; stroke:#000; stroke-miterlimit:10;"/><path d="M287.38,10.85c0-2.98,.98-5.45,2.94-7.41,1.96-1.96,4.43-2.94,7.41-2.94,2.62,0,4.92,.96,6.92,2.89,2,1.93,3,4.27,3,7.03V79.96c0,2.98-.95,5.52-2.83,7.63-1.89,2.11-4.25,3.16-7.08,3.16s-5.36-.93-7.36-2.78c-2-1.85-3-4.23-3-7.14V10.85Z" style="fill:red; stroke:#000; stroke-miterlimit:10;"/><path d="M314.63,15v-2.73c0-1.6,.13-2.91,.38-3.92,.25-1.02,.85-2,1.8-2.94,1.89-1.89,4.32-2.83,7.3-2.83h29.1c.87,0,1.67,.22,2.4,.65,.72,.44,1.09,1.05,1.09,1.85,0,.73-.29,1.38-.87,1.96-.58,.58-1.27,.87-2.07,.87h-14.82c-1.31,0-2.22,.05-2.73,.16-.51,.11-1.02,.47-1.53,1.09-.51,.62-.76,1.44-.76,2.45v26.81c0,.58,.02,1.25,.05,2.02,.04,.76,.42,1.44,1.15,2.02,.36,.29,.84,.51,1.42,.65,.58,.15,1.2,.22,1.86,.22h14.89c1.17,0,2.15,.18,2.96,.54,.8,.36,1.21,.98,1.21,1.85,0,.95-.33,1.74-.99,2.4-.66,.65-1.5,.98-2.53,.98h-14.08c-.81,0-1.63,.02-2.47,.05-.84,.04-1.54,.29-2.09,.76-.55,.47-.92,1.13-1.1,1.96-.18,.84-.27,1.76-.27,2.78v21.26c0,1.24,.26,2.27,.77,3.11,.51,.84,1.32,1.76,2.42,2.78,1.1,1.02,1.76,1.6,1.98,1.74,.73,.51,1.54,.76,2.42,.76h19.65c.95,0,1.77,.27,2.47,.82,.7,.54,1.04,1.22,1.04,2.02,0,.73-.35,1.36-1.04,1.91-.69,.54-1.47,.82-2.34,.82h-36.95c-1.53,0-2.69-.14-3.49-.44-.8-.29-1.82-.94-3.05-1.96-1.24-1.02-2.07-2.18-2.51-3.49-.44-1.31-.65-3.05-.65-5.23V15Z" style="fill:red; stroke:#000; stroke-miterlimit:10;"/><path d="M368.92,34.62v-14.5c0-5.23,2.29-9.46,6.87-12.7,4.58-3.23,9.81-4.85,15.7-4.85s10.64,1.2,14.71,3.6c4.72,2.76,7.08,6.54,7.08,11.34v9.59c0,2.33-.93,4.27-2.78,5.83-1.85,1.56-4.02,2.34-6.49,2.34-4.43,0-7.08-2.11-7.96-6.32-.58-4-1.16-8.03-1.74-12.1-.87-2.47-2.25-4.47-4.14-6-1.89-1.53-3.92-2.29-6.1-2.29-1.6,0-3.02,.51-4.25,1.53-2.4,2.11-4.18,4.12-5.34,6.05-1.16,1.93-1.74,3.72-1.74,5.4,0,3.71,3.52,7.49,10.57,11.34,6.61,3.42,13.22,6.83,19.84,10.25,7.12,4.51,10.68,9.37,10.68,14.61v17.88c0,4.43-2.08,7.96-6.24,10.57-3.51,2.18-8,3.56-13.47,4.14-.58,0-1.22,.04-1.92,.11-.7,.07-1.22,.11-1.59,.11-5.84,0-10.77-1.2-14.79-3.6-4.6-2.76-6.9-6.54-6.9-11.34v-8.72c0-2.54,.95-4.87,2.85-6.98,1.9-2.11,4.02-3.16,6.36-3.16,.8,0,1.53,.15,2.19,.44,4.97,2.04,7.62,6.94,7.95,14.71,.33,7.78,2.36,11.66,6.08,11.66,4.02,0,6.79-.29,8.33-.87,1.53-.58,2.88-1.56,4.06-2.94,2.19-2.47,3.29-4.8,3.29-6.98,0-3.63-3.53-7.45-10.57-11.45-6.61-3.63-13.23-7.3-19.84-11.01-7.12-4.87-10.68-10.1-10.68-15.7Z" style="fill:red; stroke:#000; stroke-miterlimit:10;"/></svg>